# xmcd
#
# Track frame offsets: 
#        150
#        10490
#        21714
#        36286
#        50581
#        60626
#        73009
#        83310
#        99655
#        114140
#        121919
#        133456
#        145181
#        153167
#        161496
#        169843
#        180782
#        187329
#        204807
#        214574
#        225357
#        236675
#        250154
#        264192
#        274218
#        288132
#
# Disc length: 4000 seconds
#
# Revision: 3
# Processed by: cddbd v1.5.2PL0 Copyright (c) Steve Scherf et al.
# Submitted via: ExactAudioCopyFreeDBPlugin 1.0
#
DISCID=650f9e1a
DTITLE=Tennessee Ernie Ford - 8 Classic Albums_CD3
DYEAR=2016
DGENRE=Country
TTITLE0=Just a closer walk with thee
TTITLE1=I want to be ready 
TTITLE2=Take my hand, precious Lord 
TTITLE3=Stand by me 
TTITLE4=When God dips his live in my heart 
TTITLE5=Get on board, little children 
TTITLE6=Noah found grace in the eyes of the Lord 
TTITLE7=Were you there 
TTITLE8=Peace in the valley 
TTITLE9=I know the Lord laid his hands on me 
TTITLE10=Wayfaring pilgrim 
TTITLE11=He'll understand and say "well done"
TTITLE12=Joy to the world 
TTITLE13=O little town of Bethlehem 
TTITLE14=O holy night 
TTITLE15=The star carol 
TTITLE16=Hark! The herald angels sing 
TTITLE17=Some children see him 
TTITLE18=God rest ye merry gentlemen 
TTITLE19=O harken ye 
TTITLE20=Adeste fideles 
TTITLE21=The first Noel 
TTITLE22=Sleep, my little Lord Jesus 
TTITLE23=We three kings 
TTITLE24=It came upon a midnight clear 
TTITLE25=Silent night 
EXTD=
EXTT0=
EXTT1=
EXTT2=
EXTT3=
EXTT4=
EXTT5=
EXTT6=
EXTT7=
EXTT8=
EXTT9=
EXTT10=
EXTT11=
EXTT12=
EXTT13=
EXTT14=
EXTT15=
EXTT16=
EXTT17=
EXTT18=
EXTT19=
EXTT20=
EXTT21=
EXTT22=
EXTT23=
EXTT24=
EXTT25=
PLAYORDER=
